<svg width="45" height="45" viewBox="0 0 45 45" fill="none" xmlns="http://www.w3.org/2000/svg">
<path fill-rule="evenodd" clip-rule="evenodd" d="M0 1.68312C0 1.23673 0.177329 0.808622 0.492975 0.492975C0.808622 0.177329 1.23673 0 1.68312 0H43.3169C43.7633 0 44.1914 0.177329 44.507 0.492975C44.8227 0.808622 45 1.23673 45 1.68312V43.3169C45 43.7633 44.8227 44.1914 44.507 44.507C44.1914 44.8227 43.7633 45 43.3169 45H1.68312C1.23673 45 0.808622 44.8227 0.492975 44.507C0.177329 44.1914 0 43.7633 0 43.3169V1.68312ZM3.54803 41.452L17.0837 3.54803H27.9129L41.452 41.452H31.6225L22.5 16.2623L16.8514 33.3292H22.0893L24.7991 41.452H3.54466H3.54803Z" fill="#60602E"/>
</svg>
