<svg width="45" height="45" viewBox="0 0 45 45" fill="none" xmlns="http://www.w3.org/2000/svg">
<path d="M34.4531 0H10.5469C4.722 0 0 4.722 0 10.5469V34.4531C0 40.278 4.722 45 10.5469 45H34.4531C40.278 45 45 40.278 45 34.4531V10.5469C45 4.722 40.278 0 34.4531 0Z" fill="#60602E"/>
<path fill-rule="evenodd" clip-rule="evenodd" d="M3.33984 23.9962V21.1104C3.40031 21.0804 3.40031 21.0203 3.40031 20.9602C4.30787 17.0223 6.78867 14.6475 10.7216 13.7155C11.0544 13.6253 11.4173 13.6554 11.7503 13.5352H13.6863C13.7166 13.5953 13.8074 13.5652 13.8679 13.5652C15.8041 13.7756 17.5588 14.467 19.1016 15.6695C20.4328 16.6614 21.4615 17.9241 22.3993 19.2767C22.5202 19.4571 22.5809 19.4571 22.7018 19.2767C23.2464 18.4952 23.8212 17.7437 24.4867 17.0524C26.0902 15.3388 28.0264 14.1363 30.3861 13.7155C30.7188 13.6253 31.112 13.6554 31.445 13.5352H33.3206C33.3508 13.5953 33.4114 13.5652 33.4719 13.5652C34.0467 13.6253 34.5913 13.7456 35.1359 13.8959C39.1897 15.0683 42.0638 18.7657 41.8217 22.9442C41.6401 26.4614 39.8552 28.9865 36.7392 30.5796C35.1963 31.4214 33.5021 31.6318 31.7475 31.6018C29.4483 31.5717 27.4516 30.79 25.7272 29.2871C24.5169 28.2349 23.5791 26.9724 22.7018 25.6496C22.5809 25.4693 22.5202 25.4994 22.3993 25.6797C21.8547 26.4915 21.2799 27.303 20.6144 28.0846C19.4346 29.4073 18.0731 30.4894 16.3789 31.0607C14.2914 31.7821 12.1737 31.8122 10.0561 31.2411C7.00049 30.3692 4.91309 28.4453 3.76348 25.4994C3.58189 25.0184 3.49102 24.4774 3.33984 23.9962ZM12.9604 28.4152C14.6848 28.4753 16.1671 27.9042 17.4377 26.7319C18.7386 25.5294 19.6764 24.0263 20.6144 22.5534C20.6446 22.4633 20.6446 22.4031 20.5842 22.313C19.7975 21.0804 18.9807 19.848 17.8915 18.8258C15.8041 16.8418 13.3536 16.1805 10.6007 17.0522C8.33168 17.8038 6.87938 19.3969 6.54662 21.8018C6.21387 24.0564 7.09119 25.8601 8.90631 27.2129C10.1166 28.0846 11.478 28.4453 12.9604 28.4152ZM32.1407 28.4152C32.8062 28.4152 33.4719 28.3852 34.1072 28.2048C36.4971 27.4834 38.0704 26.0104 38.5242 23.5454C38.9779 21.1105 38.0401 19.1565 35.9829 17.7738C33.714 16.2105 30.4163 16.3608 28.1171 18.0744C26.5743 19.2166 25.5456 20.7497 24.5169 22.343C24.4564 22.4332 24.4867 22.4933 24.5169 22.5835C25.3338 23.876 26.1506 25.1687 27.2095 26.2809C28.5405 27.6938 30.144 28.5054 32.1407 28.4152Z" fill="#42421F"/>
<path fill-rule="evenodd" clip-rule="evenodd" d="M12.9325 21.5919C13.9005 21.5919 14.899 21.622 15.867 21.5919C16.109 21.5919 16.1393 21.652 16.1393 21.8925C16.109 22.1622 16.109 22.4345 16.1393 22.7042C16.1695 22.9447 16.109 23.0048 15.8368 23.0048H11.9643C11.2988 23.0048 10.6333 22.9748 9.9676 23.0048C9.75578 23.0048 9.69531 22.9447 9.69531 22.7042C9.72555 22.4337 9.72555 22.1632 9.69531 21.8624C9.69531 21.652 9.75578 21.5919 9.96777 21.5919C10.9358 21.622 11.9341 21.5919 12.9325 21.5919ZM31.9919 19.668C32.2338 19.668 32.4759 19.698 32.6877 19.668C32.839 19.668 32.8995 19.7281 32.8995 19.8784C32.8693 20.2994 32.8995 20.7202 32.8693 21.141C32.8693 21.3514 32.9297 21.4115 33.1415 21.4115C33.5348 21.3815 33.9584 21.4115 34.3819 21.3815C34.5634 21.3815 34.6239 21.4115 34.6239 21.622V23.0048C34.6239 23.1551 34.5634 23.2152 34.4121 23.2152C33.9886 23.1852 33.565 23.2152 33.1113 23.1852C32.9297 23.1852 32.8693 23.2453 32.8693 23.4256C32.8995 23.8465 32.8693 24.2673 32.8995 24.6883C32.8995 24.8686 32.839 24.9588 32.6574 24.9588C32.2041 24.9287 31.7493 24.9287 31.296 24.9588C31.1146 24.9588 31.054 24.8987 31.054 24.7183C31.0842 24.2673 31.054 23.8465 31.0842 23.3956C31.0842 23.2453 31.0237 23.1852 30.8726 23.1852C30.4489 23.2152 30.0255 23.1852 29.6018 23.2152C29.3598 23.2152 29.3296 23.1251 29.3296 22.9447C29.3296 22.5239 29.3598 22.1029 29.3296 21.6821C29.2993 21.4416 29.4204 21.3815 29.6321 21.3815C30.0557 21.4115 30.4489 21.3815 30.8726 21.4115C31.0237 21.4115 31.0842 21.3514 31.0842 21.2011C31.054 20.7803 31.0842 20.3294 31.054 19.9086C31.054 19.7281 31.1146 19.668 31.296 19.668C31.5381 19.698 31.7499 19.668 31.9919 19.668Z" fill="#42421F"/>
</svg>
