<svg width="66" height="61" viewBox="0 0 66 61" fill="none" xmlns="http://www.w3.org/2000/svg">
<path d="M22.3929 28.5607H14.1429V21.4205H22.3929C23.3306 21.4205 24.2299 21.7966 24.893 22.4661C25.5561 23.1357 25.9286 24.0437 25.9286 24.9906C25.9286 25.9374 25.5561 26.8455 24.893 27.515C24.2299 28.1845 23.3306 28.5607 22.3929 28.5607ZM23.5714 33.3208H14.1429V42.841H23.5714C24.8217 42.841 26.0208 42.3395 26.9049 41.4468C27.789 40.5541 28.2857 39.3434 28.2857 38.0809C28.2857 36.8184 27.789 35.6077 26.9049 34.715C26.0208 33.8223 24.8217 33.3208 23.5714 33.3208ZM47.1429 28.5607C45.6809 28.5611 44.255 29.0191 43.0615 29.8715C41.8679 30.724 40.9654 31.929 40.478 33.3208H53.8077C53.3204 31.929 52.4178 30.724 51.2243 29.8715C50.0307 29.0191 48.6048 28.5611 47.1429 28.5607ZM66 4.76012V56.2399C66 57.5023 65.5033 58.7131 64.6192 59.6058C63.7351 60.4985 62.536 61 61.2857 61H4.71429C3.46398 61 2.26488 60.4985 1.38078 59.6058C0.496682 58.7131 0 57.5023 0 56.2399V4.76012C0 3.49766 0.496682 2.2869 1.38078 1.39421C2.26488 0.501511 3.46398 0 4.71429 0H61.2857C62.536 0 63.7351 0.501511 64.6192 1.39421C65.5033 2.2869 66 3.49766 66 4.76012ZM37.7143 19.0404C37.7143 19.6717 37.9626 20.277 38.4047 20.7234C38.8467 21.1697 39.4463 21.4205 40.0714 21.4205H54.2143C54.8394 21.4205 55.439 21.1697 55.881 20.7234C56.3231 20.277 56.5714 19.6717 56.5714 19.0404C56.5714 18.4092 56.3231 17.8038 55.881 17.3575C55.439 16.9111 54.8394 16.6604 54.2143 16.6604H40.0714C39.4463 16.6604 38.8467 16.9111 38.4047 17.3575C37.9626 17.8038 37.7143 18.4092 37.7143 19.0404ZM33 38.0809C32.9993 36.5216 32.6192 34.9864 31.8933 33.6102C31.1673 32.2339 30.1177 31.0588 28.8367 30.188C29.8057 28.9626 30.4124 27.4858 30.5871 25.9276C30.7618 24.3694 30.4974 22.7931 29.8242 21.3799C29.151 19.9667 28.0965 18.7741 26.7819 17.9392C25.4672 17.1043 23.9459 16.661 22.3929 16.6604H11.7857C11.1606 16.6604 10.561 16.9111 10.119 17.3575C9.67691 17.8038 9.42857 18.4092 9.42857 19.0404V45.2211C9.42857 45.8523 9.67691 46.4577 10.119 46.904C10.561 47.3504 11.1606 47.6011 11.7857 47.6011H23.5714C26.072 47.6011 28.4702 46.5981 30.2384 44.8127C32.0066 43.0273 33 40.6058 33 38.0809ZM58.9286 35.7008C58.9284 32.9796 58.0046 30.3407 56.3112 28.2238C54.6177 26.1069 52.2569 24.64 49.6222 24.0675C46.9875 23.495 44.2381 23.8516 41.8322 25.0778C39.4263 26.304 37.5092 28.3257 36.4006 30.806C35.2919 33.2863 35.0586 36.0753 35.7395 38.7083C36.4205 41.3412 37.9745 43.659 40.1426 45.2752C42.3108 46.8915 44.962 47.7087 47.6545 47.5906C50.3469 47.4725 52.918 46.4262 54.9391 44.6261C55.408 44.2083 55.6933 43.6195 55.7322 42.9893C55.7712 42.3591 55.5606 41.7391 55.1468 41.2657C54.9419 41.0313 54.6933 40.8399 54.4152 40.7025C54.1371 40.5651 53.8349 40.4844 53.5259 40.4649C52.9017 40.4256 52.2877 40.6382 51.8188 41.056C50.9511 41.8279 49.909 42.3732 48.784 42.644C47.659 42.9148 46.4854 42.9029 45.366 42.6092C44.2467 42.3156 43.2157 41.7492 42.3635 40.9597C41.5113 40.1702 40.8639 39.1817 40.478 38.0809H56.5714C57.1966 38.0809 57.7961 37.8301 58.2382 37.3838C58.6802 36.9375 58.9286 36.3321 58.9286 35.7008Z" fill="#565448"/>
</svg>
