<svg width="45" height="46" viewBox="0 0 45 46" fill="none" xmlns="http://www.w3.org/2000/svg">
<path d="M33.0394 0L11.2069 0.00763147C8.63812 0.00763147 6.03937 0.665846 4.15312 2.12536C2.83067 3.10322 1.78858 4.42241 1.13437 5.94682C0.436875 7.49792 0 9.57749 0 11.3537L0.0225 34.6297C0.02625 37.6899 0.920625 40.4621 2.76187 42.4749C4.60687 44.4896 7.37812 45.6858 10.8825 45.7011L31.605 45.7888C33.9675 45.7984 37.4081 45.7201 39.6731 44.4266C41.6887 43.2723 43.47 41.458 44.355 38.7335C44.8762 37.1309 45.0019 34.7575 45 32.7295L44.9606 11.4949C44.9569 9.80072 44.6794 7.63529 43.935 5.89722C43.1381 4.03514 41.7206 2.43444 39.5812 1.27064C38.1619 0.496046 35.8537 0 33.0394 0ZM33.0394 1.77432C35.6231 1.77432 37.7981 2.33714 38.7394 2.85226C40.5712 3.85008 41.6344 5.07684 42.2812 6.59168C42.8719 7.96725 43.1625 10.0125 43.1681 11.4987L43.2019 32.7333C43.2056 34.666 43.02 37.0393 42.6431 38.1898C41.9006 40.483 40.4944 41.9025 38.775 42.887C37.2487 43.7588 33.8775 44.0183 31.6125 44.0088L10.8937 43.9248C7.78687 43.9115 5.58375 42.906 4.095 41.2805C2.61 39.6569 1.8225 37.3503 1.8225 34.6316L1.87312 11.3518C1.87312 9.77019 2.24062 7.86614 2.76187 6.70234C3.40875 5.25808 4.16812 4.39954 5.32125 3.50857C6.72187 2.42299 9.1275 1.85063 11.4 1.85063L33.0394 1.77432ZM22.4269 8.30495C18.7219 8.47475 16.4194 11.4682 16.4006 14.5818C16.4362 17.3349 19.4662 21.2231 21.8081 23.2245C22.0331 23.4133 22.0969 23.4324 22.4269 23.5679C22.5431 23.6156 22.7981 23.4782 23.04 23.3103C23.715 22.8429 24.9019 21.5036 26.13 19.9944C26.9071 19.0129 27.5568 17.9338 28.0631 16.7835C28.83 15.0855 28.5525 13.7328 28.5037 13.1815C28.1577 11.9654 27.5198 10.8561 26.6475 9.95334C25.4895 8.89148 23.9857 8.30417 22.4269 8.30495ZM30.2494 23.4191C28.1732 23.4684 26.1188 23.8615 24.1669 24.5829C23.8856 24.6935 23.6794 24.7737 23.4656 24.9072C23.3587 24.9759 23.2594 25.1648 23.2687 25.4643C23.3006 26.2904 23.8125 27.9026 24.4387 29.7952C25.1587 31.9606 26.4375 34.126 27.8962 35.0227C28.6019 35.4538 29.3865 35.7339 30.2021 35.8461C31.0177 35.9583 31.8472 35.9001 32.64 35.6752C34.2 35.2116 35.6306 34.0192 36.3187 32.7256C38.1675 29.2571 36.675 25.9565 34.2169 24.2986C33.3787 23.7339 32.0925 23.4496 30.6731 23.421L30.2494 23.4191ZM14.4394 23.4916C13.968 23.4914 13.4971 23.5213 13.0294 23.5812C11.9119 23.7301 11.2819 24.1021 10.6106 24.5543C9.30481 25.4235 8.38595 26.7791 8.05125 28.3299C7.91062 29.3831 7.89 30.3389 8.11312 31.2051C8.925 33.8551 10.5994 35.4444 13.4512 35.8832C14.6437 35.9366 16.02 35.763 17.1825 35.0246C19.5619 33.5327 21.0825 28.9767 21.705 25.9775C21.8044 25.6417 21.7706 25.2964 21.6806 25.1762C21.6712 25.0484 21.5981 24.9606 21.3244 24.8271C20.5781 24.4608 18.8494 24.0315 16.8712 23.6824C16.0674 23.5491 15.2538 23.4853 14.4394 23.4916Z" fill="#60602E"/>
</svg>
