<svg width="29" height="45" viewBox="0 0 29 45" fill="none" xmlns="http://www.w3.org/2000/svg">
<path d="M7.19383 44.9999C11.1648 44.9999 14.3877 41.6399 14.3877 37.5V30H7.19383C3.22284 30 0 33.36 0 37.5C0 41.6399 3.22284 44.9999 7.19383 44.9999Z" fill="#42421F"/>
<path d="M0 22.5C0 18.36 3.22284 15 7.19383 15H14.3877V29.9999H7.19383C3.22284 29.9999 0 26.6399 0 22.5Z" fill="#60602E"/>
<path d="M0 7.49995C0 3.35998 3.22284 0 7.19383 0H14.3877V14.9999H7.19383C3.22284 14.9999 0 11.6399 0 7.49995Z" fill="#42421F"/>
<path d="M14.3887 0H21.5825C25.5535 0 28.7763 3.35998 28.7763 7.49995C28.7763 11.6399 25.5535 14.9999 21.5825 14.9999H14.3887V0Z" fill="#60602E"/>
<path d="M28.7763 22.5C28.7763 26.6399 25.5535 29.9999 21.5825 29.9999C17.6115 29.9999 14.3887 26.6399 14.3887 22.5C14.3887 18.36 17.6115 15 21.5825 15C25.5535 15 28.7763 18.36 28.7763 22.5Z" fill="#42421F"/>
</svg>
