<svg width="66" height="61" viewBox="0 0 66 61" fill="none" xmlns="http://www.w3.org/2000/svg">
<path d="M56.232 51.9811H46.4574V37.8291C46.4574 34.4528 46.3815 30.1096 41.3622 30.1096C36.267 30.1096 35.4882 33.7818 35.4882 37.579V51.9811H25.7169V22.875H35.1021V26.84H35.2308C36.5409 24.5525 39.732 22.143 44.4972 22.143C54.4005 22.143 56.232 28.1637 56.232 36.0053V51.9811ZM14.6751 18.8917C11.5269 18.8917 8.9991 16.5401 8.9991 13.6457C8.9991 10.7512 11.5302 8.3997 14.6751 8.3997C16.1805 8.3997 17.6242 8.9524 18.6886 9.93622C19.7531 10.92 20.3511 12.2544 20.3511 13.6457C20.3511 15.037 19.7531 16.3714 18.6886 17.3552C17.6242 18.339 16.1805 18.8917 14.6751 18.8917ZM19.5723 51.9842H9.7713V22.875H19.5723V51.9842ZM61.1226 0H4.8708C2.178 0 0 1.96725 0 4.392V56.608C0 59.0327 2.178 61 4.8708 61H61.1094C63.7989 61 66 59.0358 66 56.608V4.392C66 1.9703 63.7989 0 61.1094 0H61.1226Z" fill="#565448"/>
</svg>
