<svg width="82" height="61" viewBox="0 0 82 61" fill="none" xmlns="http://www.w3.org/2000/svg">
<path d="M7.36178 61C5.26319 61 3.51233 60.329 2.10922 58.987C0.706111 57.645 0.00303704 55.969 0 53.9589V7.04114C0 5.03395 0.703074 3.35936 2.10922 2.01736C3.51537 0.675356 5.2647 0.00290476 7.35722 0H74.6428C76.7383 0 78.4877 0.672451 79.8908 2.01736C81.2939 3.36226 81.997 5.03686 82 7.04114V53.9632C82 55.9675 81.2969 57.6421 79.8908 58.987C78.4846 60.3319 76.7353 61.0029 74.6428 61H7.36178ZM41 31.0054L77.4444 8.21321L76.0413 4.35714L41 26.1429L5.95867 4.35714L4.55556 8.21321L41 31.0054Z" fill="#565448"/>
</svg>
