<svg width="45" height="46" viewBox="0 0 45 46" fill="none" xmlns="http://www.w3.org/2000/svg">
<path fill-rule="evenodd" clip-rule="evenodd" d="M0 15.7398C0 22.9091 11.5355 45.8182 22.4807 45.8182C33.4261 45.8182 45 23.9222 45 14.9135C45 9.21751 39.5865 0 22.4161 0C5.24592 0 0 10.1823 0 15.7398ZM14.5591 17.3441C10.459 13.0124 7.91427 8.62152 7.91427 8.62152C7.91427 8.62152 12.1069 6.5784 14.846 6.03281C15.0793 5.9864 15.3173 5.93657 15.5612 5.88588C18.1789 5.34029 21.4353 4.66201 26.131 6.31187C35.901 9.74488 40.0666 16.1661 40.0666 16.1661C40.0666 16.1661 33.7793 11.2111 26.856 10.2161C22.8679 9.64294 15.4497 11.968 15.4497 11.968C15.4497 11.968 18.0282 14.639 20.1268 18.5498C20.4576 19.1663 20.78 19.7307 21.0887 20.2711C22.7379 23.1577 23.9907 25.3506 23.9907 31.0719C23.9907 35.2461 20.7669 41.4492 20.7669 41.4492C20.7669 41.4492 22.5775 33.367 21.1172 26.9765C20.0619 22.357 19.2478 21.6462 17.329 19.9707C16.5935 19.3286 15.6953 18.5447 14.5591 17.3441Z" fill="#60602E"/>
</svg>
