<svg width="45" height="52" viewBox="0 0 45 52" fill="none" xmlns="http://www.w3.org/2000/svg">
<path d="M45 36.0937V12.0302L24.4607 0V9.23936L32.5061 13.9638C32.8243 14.1797 32.8243 14.6083 32.5061 14.7179L22.9757 20.3027C22.6575 20.5187 22.3425 20.4091 22.1304 20.3027L12.6 14.7179C12.2818 14.6083 12.2818 14.0733 12.6 13.9638L20.6486 9.23936V0L0 12.0302V36.0937L7.83643 31.4757V22.0204C7.83643 21.6981 8.2575 21.4854 8.46964 21.5918L18 27.1767C18.3182 27.3926 18.4243 27.6085 18.4243 27.9308V39.1005C18.4243 39.4228 18 39.6387 17.7879 39.5323L9.7425 34.8047L1.90607 39.4228L22.4454 51.5625L42.9879 39.5323L35.1514 34.911L27.1093 39.6387C26.7911 39.8546 26.4729 39.6387 26.4729 39.2101V28.0371C26.4729 27.7148 26.685 27.3926 26.8971 27.2862L36.4275 21.6981C36.7457 21.4854 37.0607 21.6981 37.0607 22.13V31.582L45 36.0937Z" fill="#60602E"/>
</svg>
